<svg width="84" height="21" viewBox="0 0 84 21" fill="none" xmlns="http://www.w3.org/2000/svg">
<g filter="url(#filter0_d_1_15116)">
<path d="M14.9432 4.14773H13.1705C13.1023 3.76894 12.9754 3.43561 12.7898 3.14773C12.6042 2.85985 12.3769 2.61553 12.108 2.41477C11.839 2.21401 11.5379 2.0625 11.2045 1.96023C10.875 1.85795 10.5246 1.80682 10.1534 1.80682C9.48295 1.80682 8.88258 1.97538 8.35227 2.3125C7.82576 2.64962 7.40909 3.14394 7.10227 3.79545C6.79924 4.44697 6.64773 5.24242 6.64773 6.18182C6.64773 7.12879 6.79924 7.92803 7.10227 8.57955C7.40909 9.23106 7.82765 9.72348 8.35795 10.0568C8.88826 10.3902 9.48485 10.5568 10.1477 10.5568C10.5152 10.5568 10.8636 10.5076 11.1932 10.4091C11.5265 10.3068 11.8277 10.1572 12.0966 9.96023C12.3655 9.76326 12.5928 9.52273 12.7784 9.23864C12.9678 8.95076 13.0985 8.62121 13.1705 8.25L14.9432 8.25568C14.8485 8.82765 14.6648 9.35417 14.392 9.83523C14.1231 10.3125 13.7765 10.7254 13.3523 11.0739C12.9318 11.4186 12.4508 11.6856 11.9091 11.875C11.3674 12.0644 10.7765 12.1591 10.1364 12.1591C9.12879 12.1591 8.23106 11.9205 7.44318 11.4432C6.6553 10.9621 6.03409 10.2746 5.57955 9.38068C5.12879 8.48674 4.90341 7.42045 4.90341 6.18182C4.90341 4.93939 5.13068 3.87311 5.58523 2.98295C6.03977 2.08901 6.66098 1.40341 7.44886 0.926136C8.23674 0.445075 9.13258 0.204545 10.1364 0.204545C10.7538 0.204545 11.3295 0.29356 11.8636 0.471591C12.4015 0.645833 12.8845 0.903409 13.3125 1.24432C13.7405 1.58144 14.0947 1.99432 14.375 2.48295C14.6553 2.9678 14.8447 3.52273 14.9432 4.14773ZM19.4474 12.1932C18.8944 12.1932 18.3944 12.0909 17.9474 11.8864C17.5005 11.678 17.1463 11.3769 16.8849 10.983C16.6274 10.589 16.4986 10.1061 16.4986 9.53409C16.4986 9.04167 16.5933 8.63636 16.7827 8.31818C16.9721 8 17.2277 7.74811 17.5497 7.5625C17.8717 7.37689 18.2315 7.23674 18.6293 7.14205C19.027 7.04735 19.4323 6.97538 19.8452 6.92614C20.3679 6.86553 20.7921 6.81629 21.1179 6.77841C21.4437 6.73674 21.6804 6.67045 21.8281 6.57955C21.9759 6.48864 22.0497 6.34091 22.0497 6.13636V6.09659C22.0497 5.60038 21.9096 5.21591 21.6293 4.94318C21.3527 4.67045 20.9399 4.53409 20.3906 4.53409C19.8187 4.53409 19.3679 4.66098 19.0384 4.91477C18.7126 5.16477 18.4872 5.44318 18.3622 5.75L16.7656 5.38636C16.955 4.85606 17.2315 4.42803 17.5952 4.10227C17.9626 3.77273 18.3849 3.53409 18.8622 3.38636C19.3395 3.23485 19.8414 3.15909 20.3679 3.15909C20.7164 3.15909 21.0857 3.20076 21.4759 3.28409C21.8698 3.36364 22.2372 3.51136 22.5781 3.72727C22.9228 3.94318 23.205 4.25189 23.4247 4.65341C23.6444 5.05114 23.7543 5.56818 23.7543 6.20455V12H22.0952V10.8068H22.027C21.9171 11.0265 21.7524 11.2424 21.5327 11.4545C21.313 11.6667 21.0308 11.8428 20.6861 11.983C20.3414 12.1231 19.9285 12.1932 19.4474 12.1932ZM19.8168 10.8295C20.2865 10.8295 20.688 10.7367 21.0213 10.5511C21.3584 10.3655 21.6141 10.1231 21.7884 9.82386C21.9664 9.52083 22.0554 9.19697 22.0554 8.85227V7.72727C21.9948 7.78788 21.8774 7.8447 21.7031 7.89773C21.5327 7.94697 21.3376 7.99053 21.1179 8.02841C20.8982 8.0625 20.6842 8.0947 20.4759 8.125C20.2675 8.15152 20.0933 8.17424 19.9531 8.19318C19.6236 8.23485 19.3224 8.30492 19.0497 8.40341C18.7808 8.50189 18.5649 8.64394 18.402 8.82955C18.2429 9.01136 18.1634 9.25379 18.1634 9.55682C18.1634 9.97727 18.3187 10.2955 18.6293 10.5114C18.9399 10.7235 19.3357 10.8295 19.8168 10.8295ZM29.2841 12.1705C28.5795 12.1705 27.9508 11.9905 27.3977 11.6307C26.8485 11.267 26.4167 10.75 26.1023 10.0795C25.7917 9.4053 25.6364 8.59659 25.6364 7.65341C25.6364 6.71023 25.7936 5.90341 26.108 5.23295C26.4261 4.5625 26.8617 4.04924 27.4148 3.69318C27.9678 3.33712 28.5947 3.15909 29.2955 3.15909C29.8371 3.15909 30.2727 3.25 30.6023 3.43182C30.9356 3.60985 31.1932 3.81818 31.375 4.05682C31.5606 4.29545 31.7045 4.50568 31.8068 4.6875H31.9091V0.363636H33.608V12H31.9489V10.642H31.8068C31.7045 10.8277 31.5568 11.0398 31.3636 11.2784C31.1742 11.517 30.9129 11.7254 30.5795 11.9034C30.2462 12.0814 29.8144 12.1705 29.2841 12.1705ZM29.6591 10.7216C30.1477 10.7216 30.5606 10.5928 30.8977 10.3352C31.2386 10.0739 31.4962 9.71212 31.6705 9.25C31.8485 8.78788 31.9375 8.25 31.9375 7.63636C31.9375 7.0303 31.8504 6.5 31.6761 6.04545C31.5019 5.59091 31.2462 5.23674 30.9091 4.98295C30.572 4.72917 30.1553 4.60227 29.6591 4.60227C29.1477 4.60227 28.7216 4.73485 28.3807 5C28.0398 5.26515 27.7822 5.62689 27.608 6.08523C27.4375 6.54356 27.3523 7.06061 27.3523 7.63636C27.3523 8.2197 27.4394 8.74432 27.6136 9.21023C27.7879 9.67614 28.0455 10.0455 28.3864 10.3182C28.7311 10.5871 29.1553 10.7216 29.6591 10.7216ZM38.5724 12.1932C38.0194 12.1932 37.5194 12.0909 37.0724 11.8864C36.6255 11.678 36.2713 11.3769 36.0099 10.983C35.7524 10.589 35.6236 10.1061 35.6236 9.53409C35.6236 9.04167 35.7183 8.63636 35.9077 8.31818C36.0971 8 36.3527 7.74811 36.6747 7.5625C36.9967 7.37689 37.3565 7.23674 37.7543 7.14205C38.152 7.04735 38.5573 6.97538 38.9702 6.92614C39.4929 6.86553 39.9171 6.81629 40.2429 6.77841C40.5687 6.73674 40.8054 6.67045 40.9531 6.57955C41.1009 6.48864 41.1747 6.34091 41.1747 6.13636V6.09659C41.1747 5.60038 41.0346 5.21591 40.7543 4.94318C40.4777 4.67045 40.0649 4.53409 39.5156 4.53409C38.9437 4.53409 38.4929 4.66098 38.1634 4.91477C37.8376 5.16477 37.6122 5.44318 37.4872 5.75L35.8906 5.38636C36.08 4.85606 36.3565 4.42803 36.7202 4.10227C37.0876 3.77273 37.5099 3.53409 37.9872 3.38636C38.4645 3.23485 38.9664 3.15909 39.4929 3.15909C39.8414 3.15909 40.2107 3.20076 40.6009 3.28409C40.9948 3.36364 41.3622 3.51136 41.7031 3.72727C42.0478 3.94318 42.33 4.25189 42.5497 4.65341C42.7694 5.05114 42.8793 5.56818 42.8793 6.20455V12H41.2202V10.8068H41.152C41.0421 11.0265 40.8774 11.2424 40.6577 11.4545C40.438 11.6667 40.1558 11.8428 39.8111 11.983C39.4664 12.1231 39.0535 12.1932 38.5724 12.1932ZM38.9418 10.8295C39.4115 10.8295 39.813 10.7367 40.1463 10.5511C40.4834 10.3655 40.7391 10.1231 40.9134 9.82386C41.0914 9.52083 41.1804 9.19697 41.1804 8.85227V7.72727C41.1198 7.78788 41.0024 7.8447 40.8281 7.89773C40.6577 7.94697 40.4626 7.99053 40.2429 8.02841C40.0232 8.0625 39.8092 8.0947 39.6009 8.125C39.3925 8.15152 39.2183 8.17424 39.0781 8.19318C38.7486 8.23485 38.4474 8.30492 38.1747 8.40341C37.9058 8.50189 37.6899 8.64394 37.527 8.82955C37.3679 9.01136 37.2884 9.25379 37.2884 9.55682C37.2884 9.97727 37.4437 10.2955 37.7543 10.5114C38.0649 10.7235 38.4607 10.8295 38.9418 10.8295ZM51.6818 5.40341L50.142 5.67614C50.0777 5.47917 49.9754 5.29167 49.8352 5.11364C49.6989 4.93561 49.5133 4.78977 49.2784 4.67614C49.0436 4.5625 48.75 4.50568 48.3977 4.50568C47.9167 4.50568 47.5152 4.61364 47.1932 4.82955C46.8712 5.04167 46.7102 5.31629 46.7102 5.65341C46.7102 5.94508 46.8182 6.17992 47.0341 6.35795C47.25 6.53598 47.5985 6.68182 48.0795 6.79545L49.4659 7.11364C50.2689 7.29924 50.8674 7.58523 51.2614 7.97159C51.6553 8.35795 51.8523 8.85985 51.8523 9.47727C51.8523 10 51.7008 10.4659 51.3977 10.875C51.0985 11.2803 50.6799 11.5985 50.142 11.8295C49.608 12.0606 48.9886 12.1761 48.2841 12.1761C47.3068 12.1761 46.5095 11.9678 45.892 11.5511C45.2746 11.1307 44.8958 10.5341 44.7557 9.76136L46.3977 9.51136C46.5 9.93939 46.7102 10.2633 47.0284 10.483C47.3466 10.6989 47.7614 10.8068 48.2727 10.8068C48.8295 10.8068 49.2746 10.6913 49.608 10.4602C49.9413 10.2254 50.108 9.93939 50.108 9.60227C50.108 9.32955 50.0057 9.10038 49.8011 8.91477C49.6004 8.72917 49.2917 8.58902 48.875 8.49432L47.3977 8.17045C46.5833 7.98485 45.9811 7.68939 45.5909 7.28409C45.2045 6.87879 45.0114 6.36553 45.0114 5.74432C45.0114 5.22917 45.1553 4.77841 45.4432 4.39205C45.7311 4.00568 46.1288 3.70455 46.6364 3.48864C47.1439 3.26894 47.7254 3.15909 48.3807 3.15909C49.3239 3.15909 50.0663 3.36364 50.608 3.77273C51.1496 4.17803 51.5076 4.72159 51.6818 5.40341ZM57.794 3.27273V4.63636H53.027V3.27273H57.794ZM54.3054 1.18182H56.0043V9.4375C56.0043 9.76705 56.0535 10.0152 56.152 10.1818C56.2505 10.3447 56.3774 10.4564 56.5327 10.517C56.6918 10.5739 56.8641 10.6023 57.0497 10.6023C57.1861 10.6023 57.3054 10.5928 57.4077 10.5739C57.5099 10.5549 57.5895 10.5398 57.6463 10.5284L57.9531 11.9318C57.8546 11.9697 57.7145 12.0076 57.5327 12.0455C57.3509 12.0871 57.1236 12.1098 56.8509 12.1136C56.4039 12.1212 55.9872 12.0417 55.6009 11.875C55.2145 11.7083 54.902 11.4508 54.6634 11.1023C54.4247 10.7538 54.3054 10.3163 54.3054 9.78977V1.18182ZM59.6733 12V3.27273H61.3153V4.65909H61.4062C61.5653 4.18939 61.8456 3.82008 62.2472 3.55114C62.6525 3.27841 63.1108 3.14205 63.6222 3.14205C63.7282 3.14205 63.8532 3.14583 63.9972 3.15341C64.1449 3.16098 64.2604 3.17045 64.3438 3.18182V4.80682C64.2756 4.78788 64.1544 4.76705 63.9801 4.74432C63.8059 4.7178 63.6316 4.70455 63.4574 4.70455C63.0559 4.70455 62.6979 4.78977 62.3835 4.96023C62.0729 5.12689 61.8267 5.35985 61.6449 5.65909C61.4631 5.95455 61.3722 6.29167 61.3722 6.67045V12H59.6733ZM68.2756 12.1932C67.7225 12.1932 67.2225 12.0909 66.7756 11.8864C66.3286 11.678 65.9744 11.3769 65.7131 10.983C65.4555 10.589 65.3267 10.1061 65.3267 9.53409C65.3267 9.04167 65.4214 8.63636 65.6108 8.31818C65.8002 8 66.0559 7.74811 66.3778 7.5625C66.6998 7.37689 67.0597 7.23674 67.4574 7.14205C67.8551 7.04735 68.2604 6.97538 68.6733 6.92614C69.196 6.86553 69.6203 6.81629 69.946 6.77841C70.2718 6.73674 70.5085 6.67045 70.6562 6.57955C70.804 6.48864 70.8778 6.34091 70.8778 6.13636V6.09659C70.8778 5.60038 70.7377 5.21591 70.4574 4.94318C70.1809 4.67045 69.768 4.53409 69.2188 4.53409C68.6468 4.53409 68.196 4.66098 67.8665 4.91477C67.5407 5.16477 67.3153 5.44318 67.1903 5.75L65.5938 5.38636C65.7831 4.85606 66.0597 4.42803 66.4233 4.10227C66.7907 3.77273 67.2131 3.53409 67.6903 3.38636C68.1676 3.23485 68.6695 3.15909 69.196 3.15909C69.5445 3.15909 69.9138 3.20076 70.304 3.28409C70.6979 3.36364 71.0653 3.51136 71.4062 3.72727C71.7509 3.94318 72.0331 4.25189 72.2528 4.65341C72.4725 5.05114 72.5824 5.56818 72.5824 6.20455V12H70.9233V10.8068H70.8551C70.7453 11.0265 70.5805 11.2424 70.3608 11.4545C70.1411 11.6667 69.8589 11.8428 69.5142 11.983C69.1695 12.1231 68.7566 12.1932 68.2756 12.1932ZM68.6449 10.8295C69.1146 10.8295 69.5161 10.7367 69.8494 10.5511C70.1866 10.3655 70.4422 10.1231 70.6165 9.82386C70.7945 9.52083 70.8835 9.19697 70.8835 8.85227V7.72727C70.8229 7.78788 70.7055 7.8447 70.5312 7.89773C70.3608 7.94697 70.1657 7.99053 69.946 8.02841C69.7263 8.0625 69.5123 8.0947 69.304 8.125C69.0956 8.15152 68.9214 8.17424 68.7812 8.19318C68.4517 8.23485 68.1506 8.30492 67.8778 8.40341C67.6089 8.50189 67.393 8.64394 67.2301 8.82955C67.071 9.01136 66.9915 9.25379 66.9915 9.55682C66.9915 9.97727 67.1468 10.2955 67.4574 10.5114C67.768 10.7235 68.1638 10.8295 68.6449 10.8295ZM74.8452 12V3.27273H76.4872V4.65909H76.5781C76.7372 4.18939 77.0175 3.82008 77.419 3.55114C77.8243 3.27841 78.2827 3.14205 78.794 3.14205C78.9001 3.14205 79.0251 3.14583 79.169 3.15341C79.3168 3.16098 79.4323 3.17045 79.5156 3.18182V4.80682C79.4474 4.78788 79.3262 4.76705 79.152 4.74432C78.9777 4.7178 78.8035 4.70455 78.6293 4.70455C78.2277 4.70455 77.8698 4.78977 77.5554 4.96023C77.2448 5.12689 76.9986 5.35985 76.8168 5.65909C76.6349 5.95455 76.544 6.29167 76.544 6.67045V12H74.8452Z" fill="white"/>
<path d="M14.9432 4.14773V5.14773H16.1131L15.931 3.99207L14.9432 4.14773ZM13.1705 4.14773L12.1863 4.32488L12.3344 5.14773H13.1705V4.14773ZM12.108 2.41477L12.7061 1.61342L12.7061 1.61342L12.108 2.41477ZM11.2045 1.96023L10.9081 2.9153L10.9112 2.91624L11.2045 1.96023ZM8.35227 2.3125L7.81578 1.46859L7.81305 1.47034L8.35227 2.3125ZM7.10227 3.79545L6.19756 3.3694L6.19555 3.37372L7.10227 3.79545ZM7.10227 8.57955L6.19554 9.00128L6.19757 9.0056L7.10227 8.57955ZM8.35795 10.0568L7.82578 10.9035L7.82578 10.9035L8.35795 10.0568ZM11.1932 10.4091L11.4795 11.3672L11.4865 11.3651L11.1932 10.4091ZM12.0966 9.96023L11.5057 9.15346L12.0966 9.96023ZM12.7784 9.23864L11.943 8.68902L11.9412 8.69169L12.7784 9.23864ZM13.1705 8.25L13.1737 7.25L12.3462 7.24735L12.1887 8.05967L13.1705 8.25ZM14.9432 8.25568L15.9298 8.41902L16.1217 7.25945L14.9464 7.25569L14.9432 8.25568ZM14.392 9.83523L13.5221 9.34204L13.5208 9.34431L14.392 9.83523ZM13.3523 11.0739L13.9863 11.8472L13.987 11.8466L13.3523 11.0739ZM11.9091 11.875L12.2391 12.819L11.9091 11.875ZM7.44318 11.4432L6.92206 12.2967L6.92506 12.2985L7.44318 11.4432ZM5.57955 9.38068L4.68663 9.83092L4.68816 9.83393L5.57955 9.38068ZM5.58523 2.98295L6.47583 3.43773L6.47661 3.4362L5.58523 2.98295ZM7.44886 0.926136L7.96699 1.78145L7.96998 1.77962L7.44886 0.926136ZM11.8636 0.471591L11.5474 1.42031L11.5555 1.42292L11.8636 0.471591ZM13.3125 1.24432L12.6895 2.02655L12.6938 2.02991L13.3125 1.24432ZM14.375 2.48295L13.5076 2.98054L13.5093 2.98346L14.375 2.48295ZM14.9432 3.14773H13.1705V5.14773H14.9432V3.14773ZM14.1546 3.97057C14.066 3.47795 13.8957 3.01754 13.6302 2.60585L11.9493 3.6896C12.0551 3.85367 12.1386 4.05993 12.1863 4.32488L14.1546 3.97057ZM13.6302 2.60585C13.3813 2.21983 13.0727 1.88701 12.7061 1.61342L11.5098 3.21612C11.6811 3.34405 11.827 3.49987 11.9493 3.6896L13.6302 2.60585ZM12.7061 1.61342C12.3417 1.34134 11.9366 1.13883 11.4979 1.00421L10.9112 2.91624C11.1391 2.98617 11.3364 3.08669 11.5098 3.21612L12.7061 1.61342ZM11.5009 1.00516C11.0684 0.87093 10.6175 0.806818 10.1534 0.806818V2.80682C10.4317 2.80682 10.6816 2.84498 10.9081 2.91529L11.5009 1.00516ZM10.1534 0.806818C9.30622 0.806818 8.51732 1.02262 7.81579 1.46859L8.88876 3.15641C9.24783 2.92814 9.65969 2.80682 10.1534 2.80682V0.806818ZM7.81305 1.47034C7.10504 1.92367 6.57217 2.57397 6.19757 3.3694L8.00697 4.2215C8.24602 3.71391 8.54648 3.37557 8.8915 3.15466L7.81305 1.47034ZM6.19555 3.37372C5.81525 4.19138 5.64773 5.13963 5.64773 6.18182H7.64773C7.64773 5.34522 7.78324 4.70256 8.00899 4.21719L6.19555 3.37372ZM5.64773 6.18182C5.64773 7.23024 5.81481 8.18269 6.19555 9.00128L8.00899 8.15781C7.78367 7.67337 7.64773 7.02734 7.64773 6.18182H5.64773ZM6.19757 9.0056C6.57334 9.80352 7.11052 10.4539 7.82578 10.9035L8.89013 9.21018C8.54478 8.99311 8.24484 8.6586 8.00697 8.15349L6.19757 9.0056ZM7.82578 10.9035C8.52495 11.3429 9.30804 11.5568 10.1477 11.5568V9.55682C9.66165 9.55682 9.25156 9.43737 8.89013 9.21018L7.82578 10.9035ZM10.1477 11.5568C10.6055 11.5568 11.0509 11.4953 11.4795 11.3672L10.9068 9.45096C10.6763 9.51985 10.4248 9.55682 10.1477 9.55682V11.5568ZM11.4865 11.3651C11.9217 11.2316 12.3243 11.033 12.6875 10.767L11.5057 9.15346C11.331 9.28141 11.1313 9.38206 10.8999 9.45308L11.4865 11.3651ZM12.6875 10.767C13.0552 10.4976 13.3654 10.1685 13.6156 9.78558L11.9412 8.69169C11.8202 8.87691 11.6758 9.02887 11.5057 9.15346L12.6875 10.767ZM13.6138 9.78825C13.8817 9.38114 14.0578 8.92719 14.1522 8.44033L12.1887 8.05967C12.1392 8.31524 12.0539 8.52038 11.943 8.68902L13.6138 9.78825ZM13.1672 9.25L14.94 9.25568L14.9464 7.25569L13.1737 7.25L13.1672 9.25ZM13.9566 8.09234C13.8802 8.55404 13.7341 8.96811 13.5221 9.34204L15.262 10.3284C15.5954 9.74022 15.8168 9.10126 15.9298 8.41902L13.9566 8.09234ZM13.5208 9.34431C13.3128 9.71359 13.0464 10.031 12.7175 10.3011L13.987 11.8466C14.5066 11.4198 14.9335 10.9114 15.2633 10.3261L13.5208 9.34431ZM12.7183 10.3005C12.3933 10.567 12.0164 10.7781 11.579 10.931L12.2391 12.819C12.8852 12.5931 13.4703 12.2702 13.9863 11.8472L12.7183 10.3005ZM11.579 10.931C11.155 11.0793 10.677 11.1591 10.1364 11.1591V13.1591C10.876 13.1591 11.5799 13.0495 12.2391 12.819L11.579 10.931ZM10.1364 11.1591C9.29376 11.1591 8.57845 10.9617 7.9613 10.5879L6.92506 12.2985C7.88367 12.8792 8.96381 13.1591 10.1364 13.1591V11.1591ZM7.9643 10.5897C7.34812 10.2135 6.84903 9.67103 6.47093 8.92743L4.68816 9.83393C5.21915 10.8782 5.96249 11.7108 6.92206 12.2967L7.9643 10.5897ZM6.47245 8.93044C6.10684 8.20536 5.90341 7.30045 5.90341 6.18182H3.90341C3.90341 7.54046 4.15073 8.76812 4.68664 9.83092L6.47245 8.93044ZM5.90341 6.18182C5.90341 5.05983 6.10856 4.15697 6.47583 3.43773L4.69462 2.52818C4.1528 3.58924 3.90341 4.81895 3.90341 6.18182H5.90341ZM6.47661 3.4362C6.85442 2.69317 7.35263 2.1536 7.96698 1.78144L6.93074 0.0708275C5.96934 0.653219 5.22512 1.48486 4.69384 2.52971L6.47661 3.4362ZM7.96998 1.77962C8.58731 1.4027 9.29981 1.20455 10.1364 1.20455V-0.795455C8.96534 -0.795455 7.88618 -0.512544 6.92775 0.0726514L7.96998 1.77962ZM10.1364 1.20455C10.6566 1.20455 11.1247 1.27936 11.5474 1.42027L12.1799 -0.477092C11.5344 -0.692235 10.8509 -0.795455 10.1364 -0.795455V1.20455ZM11.5555 1.42292C11.983 1.5614 12.3585 1.76293 12.6895 2.02654L13.9355 0.462101C13.4104 0.0438867 12.8201 -0.269738 12.1718 -0.479738L11.5555 1.42292ZM12.6938 2.02991C13.0178 2.28514 13.2888 2.5991 13.5076 2.98054L15.2424 1.98537C14.9006 1.38954 14.4633 0.877739 13.9312 0.458724L12.6938 2.02991ZM13.5093 2.98346C13.7206 3.34894 13.8736 3.78421 13.9554 4.30338L15.931 3.99207C15.8158 3.26124 15.59 2.58667 15.2407 1.98245L13.5093 2.98346ZM17.9474 11.8864L17.525 12.7928L17.5313 12.7957L17.9474 11.8864ZM16.8849 10.983L16.048 11.5302L16.0517 11.5358L16.8849 10.983ZM16.7827 8.31818L17.642 8.82967L16.7827 8.31818ZM17.5497 7.5625L18.0491 8.42885L17.5497 7.5625ZM19.8452 6.92614L19.73 5.93279L19.7267 5.93317L19.8452 6.92614ZM21.1179 6.77841L21.2334 7.77178L21.2448 7.77033L21.1179 6.77841ZM21.8281 6.57955L22.3522 7.4312V7.4312L21.8281 6.57955ZM21.6293 4.94318L20.927 5.65516L20.9319 5.65991L21.6293 4.94318ZM19.0384 4.91477L19.6472 5.70808L19.6485 5.70706L19.0384 4.91477ZM18.3622 5.75L18.1401 6.72503L18.968 6.91358L19.2883 6.1273L18.3622 5.75ZM16.7656 5.38636L15.8239 5.05003L15.4449 6.11117L16.5436 6.36139L16.7656 5.38636ZM17.5952 4.10227L18.2624 4.84711L18.2629 4.84671L17.5952 4.10227ZM18.8622 3.38636L19.1579 4.34167L19.1648 4.33949L18.8622 3.38636ZM21.4759 3.28409L21.267 4.26209L21.2779 4.26431L21.4759 3.28409ZM22.5781 3.72727L22.0431 4.5721L22.0473 4.57475L22.5781 3.72727ZM23.4247 4.65341L22.5474 5.13342L22.5494 5.13693L23.4247 4.65341ZM23.7543 12V13H24.7543V12H23.7543ZM22.0952 12H21.0952V13H22.0952V12ZM22.0952 10.8068H23.0952V9.80682H22.0952V10.8068ZM22.027 10.8068V9.80682H21.409L21.1326 10.3596L22.027 10.8068ZM21.5327 11.4545L20.8381 10.7351L21.5327 11.4545ZM20.6861 11.983L20.3094 11.0566L20.6861 11.983ZM21.0213 10.5511L20.539 9.67512L20.5348 9.67745L21.0213 10.5511ZM21.7884 9.82386L20.9261 9.31731L20.9242 9.32067L21.7884 9.82386ZM22.0554 7.72727H23.0554V5.31306L21.3483 7.02017L22.0554 7.72727ZM21.7031 7.89773L21.9807 8.85844L21.9875 8.85647L21.9943 8.8544L21.7031 7.89773ZM21.1179 8.02841L21.2712 9.01658L21.2795 9.0153L21.2878 9.01387L21.1179 8.02841ZM20.4759 8.125L20.6021 9.117L20.611 9.11587L20.6198 9.11459L20.4759 8.125ZM19.9531 8.19318L20.0786 9.18532L20.087 9.18417L19.9531 8.19318ZM19.0497 8.40341L18.7101 7.46285L18.7058 7.46439L19.0497 8.40341ZM18.402 8.82955L17.6504 8.16995L17.6494 8.17104L18.402 8.82955ZM18.6293 10.5114L18.0585 11.3325L18.0653 11.3372L18.6293 10.5114ZM19.4474 11.1932C19.02 11.1932 18.6645 11.1148 18.3636 10.9771L17.5313 12.7957C18.1243 13.067 18.7688 13.1932 19.4474 13.1932V11.1932ZM18.3699 10.98C18.0823 10.8459 17.8733 10.6638 17.7182 10.4301L16.0517 11.5358C16.4193 12.0899 16.9187 12.5101 17.525 12.7927L18.3699 10.98ZM17.7219 10.4357C17.5917 10.2365 17.4986 9.95388 17.4986 9.53409H15.4986C15.4986 10.2582 15.6631 10.9415 16.048 11.5302L17.7219 10.4357ZM17.4986 9.53409C17.4986 9.16409 17.5702 8.95016 17.642 8.82967L15.9234 7.8067C15.6163 8.32257 15.4986 8.91924 15.4986 9.53409H17.4986ZM17.642 8.82967C17.7434 8.6592 17.875 8.52926 18.0491 8.42885L17.0503 6.69615C16.5805 6.96695 16.2007 7.3408 15.9234 7.8067L17.642 8.82967ZM18.0491 8.42885C18.2795 8.29604 18.5478 8.1894 18.8609 8.11485L18.3976 6.16924C17.9153 6.28409 17.4638 6.45775 17.0503 6.69615L18.0491 8.42885ZM18.8609 8.11485C19.2207 8.02919 19.5882 7.96388 19.9636 7.9191L19.7267 5.93317C19.2764 5.98688 18.8333 6.06551 18.3976 6.16924L18.8609 8.11485ZM19.9603 7.91948C20.4831 7.85887 20.9075 7.80961 21.2334 7.77172L21.0024 5.7851C20.6768 5.82296 20.2527 5.87219 19.73 5.93279L19.9603 7.91948ZM21.2448 7.77033C21.6077 7.7239 22.0183 7.63667 22.3522 7.4312L21.304 5.72789C21.3348 5.70898 21.333 5.71688 21.2701 5.73448C21.2111 5.751 21.1206 5.76992 20.991 5.78649L21.2448 7.77033ZM22.3522 7.4312C22.853 7.12306 23.0497 6.61517 23.0497 6.13636H21.0497C21.0497 6.11966 21.0528 6.04751 21.0999 5.95335C21.1506 5.85197 21.2275 5.77497 21.304 5.72789L22.3522 7.4312ZM23.0497 6.13636V6.09659H21.0497V6.13636H23.0497ZM23.0497 6.09659C23.0497 5.40701 22.8492 4.73489 22.3266 4.22646L20.9319 5.65991C20.97 5.69693 21.0497 5.79375 21.0497 6.09659H23.0497ZM22.3315 4.23122C21.802 3.70897 21.0929 3.53409 20.3906 3.53409V5.53409C20.7869 5.53409 20.9035 5.63193 20.927 5.65515L22.3315 4.23122ZM20.3906 3.53409C19.6795 3.53409 18.9878 3.69152 18.4282 4.12249L19.6485 5.70706C19.748 5.63045 19.9578 5.53409 20.3906 5.53409V3.53409ZM18.4295 4.12146C17.9964 4.45386 17.6424 4.86644 17.4361 5.3727L19.2883 6.1273C19.3321 6.01993 19.4288 5.87569 19.6472 5.70808L18.4295 4.12146ZM18.5843 4.77497L16.9877 4.41133L16.5436 6.36139L18.1401 6.72503L18.5843 4.77497ZM17.7074 5.7227C17.8494 5.32504 18.0408 5.04568 18.2624 4.84711L16.9279 3.35744C16.4223 3.81038 16.0606 4.38708 15.8239 5.05003L17.7074 5.7227ZM18.2629 4.84671C18.5216 4.61466 18.8166 4.44728 19.1579 4.34165L18.5665 2.43108C17.9532 2.6209 17.4036 2.93079 16.9275 3.35783L18.2629 4.84671ZM19.1648 4.33949C19.5393 4.2206 19.9387 4.15909 20.3679 4.15909V2.15909C19.744 2.15909 19.1397 2.24909 18.5596 2.43324L19.1648 4.33949ZM20.3679 4.15909C20.6369 4.15909 20.9358 4.1913 21.267 4.26203L21.6847 2.30615C21.2356 2.21022 20.7958 2.15909 20.3679 2.15909V4.15909ZM21.2779 4.26431C21.5517 4.31958 21.8049 4.42125 22.0431 4.57209L23.1132 2.88245C22.6695 2.60148 22.1879 2.40769 21.6738 2.30387L21.2779 4.26431ZM22.0473 4.57475C22.2295 4.6889 22.3994 4.86287 22.5475 5.13342L24.302 4.1734C24.0106 3.64092 23.6161 3.19746 23.109 2.8798L22.0473 4.57475ZM22.5494 5.13693C22.6611 5.33913 22.7543 5.67319 22.7543 6.20455H24.7543C24.7543 5.46318 24.6277 4.76314 24.3001 4.16989L22.5494 5.13693ZM22.7543 6.20455V12H24.7543V6.20455H22.7543ZM23.7543 11H22.0952V13H23.7543V11ZM23.0952 12V10.8068H21.0952V12H23.0952ZM22.0952 9.80682H22.027V11.8068H22.0952V9.80682ZM21.1326 10.3596C21.084 10.4566 20.9953 10.5834 20.8381 10.7351L22.2273 12.1739C22.5095 11.9015 22.7502 11.5964 22.9214 11.254L21.1326 10.3596ZM20.8381 10.7351C20.7279 10.8416 20.561 10.9543 20.3094 11.0566L21.0627 12.9093C21.5005 12.7313 21.8981 12.4918 22.2273 12.1739L20.8381 10.7351ZM20.3094 11.0566C20.1138 11.1362 19.8355 11.1932 19.4474 11.1932V13.1932C20.0216 13.1932 20.569 13.1101 21.0627 12.9093L20.3094 11.0566ZM19.8168 11.8295C20.4178 11.8295 20.995 11.7104 21.5078 11.4248L20.5348 9.67745C20.3809 9.76313 20.1551 9.82955 19.8168 9.82955V11.8295ZM21.5036 11.4271C21.9813 11.1642 22.3772 10.7999 22.6525 10.3271L20.9242 9.32067C20.851 9.44634 20.7356 9.5669 20.539 9.67513L21.5036 11.4271ZM22.6506 10.3304C22.917 9.87698 23.0554 9.37871 23.0554 8.85227H21.0554C21.0554 9.01523 21.0158 9.16469 20.9261 9.31731L22.6506 10.3304ZM23.0554 8.85227V7.72727H21.0554V8.85227H23.0554ZM21.3483 7.02017C21.3908 6.97769 21.4276 6.95114 21.4487 6.93724C21.4704 6.92296 21.4843 6.91614 21.4863 6.91518C21.4887 6.91402 21.4842 6.91634 21.4707 6.92142C21.4575 6.9264 21.4382 6.93306 21.412 6.94105L21.9943 8.8544C22.1865 8.79589 22.5144 8.68251 22.7625 8.43438L21.3483 7.02017ZM21.4256 6.93701C21.2981 6.97383 21.1401 7.00982 20.948 7.04295L21.2878 9.01387C21.5351 8.97124 21.7672 8.92011 21.9807 8.85844L21.4256 6.93701ZM20.9646 7.04024C20.7478 7.07387 20.5369 7.10559 20.3319 7.13541L20.6198 9.11459C20.8314 9.0838 21.0486 9.05113 21.2712 9.01658L20.9646 7.04024ZM20.3496 7.133C20.1398 7.1597 19.9628 7.18278 19.8192 7.20219L20.087 9.18417C20.2237 9.1657 20.3952 9.14333 20.6021 9.117L20.3496 7.133ZM19.8277 7.20108C19.4354 7.25068 19.0612 7.33604 18.7101 7.46286L19.3894 9.34396C19.5836 9.27381 19.8118 9.21902 20.0786 9.18528L19.8277 7.20108ZM18.7058 7.46439C18.305 7.61117 17.9401 7.83976 17.6504 8.16996L19.1536 9.48914C19.1896 9.44812 19.2565 9.39262 19.3936 9.34243L18.7058 7.46439ZM17.6494 8.17104C17.2933 8.57798 17.1634 9.07528 17.1634 9.55682H19.1634C19.1634 9.4919 19.1719 9.46324 19.1732 9.4595C19.1737 9.45783 19.1728 9.4611 19.1692 9.46753C19.1655 9.47409 19.1605 9.48129 19.1546 9.48805L17.6494 8.17104ZM17.1634 9.55682C17.1634 10.2621 17.4458 10.9066 18.0585 11.3325L19.2 9.69025C19.1853 9.68 19.1798 9.67375 19.179 9.67289C19.1785 9.67229 19.1787 9.67267 19.1785 9.67216C19.1781 9.67135 19.1746 9.66422 19.1711 9.64723C19.1674 9.62972 19.1634 9.60052 19.1634 9.55682H17.1634ZM18.0653 11.3372C18.583 11.6907 19.1904 11.8295 19.8168 11.8295V9.82955C19.481 9.82955 19.2968 9.75628 19.1932 9.68556L18.0653 11.3372ZM27.3977 11.6307L26.8457 12.4645L26.8523 12.4689L27.3977 11.6307ZM26.1023 10.0795L25.194 10.498L25.1969 10.5041L26.1023 10.0795ZM26.108 5.23295L25.2045 4.80421L25.2026 4.80839L26.108 5.23295ZM27.4148 3.69318L27.9561 4.53399L27.4148 3.69318ZM30.6023 3.43182L30.1192 4.30748L30.1312 4.31389L30.6023 3.43182ZM31.375 4.05682L30.5795 4.66289L30.5856 4.67076L31.375 4.05682ZM31.8068 4.6875L30.9352 5.17776L31.222 5.6875H31.8068V4.6875ZM31.9091 4.6875V5.6875H32.9091V4.6875H31.9091ZM31.9091 0.363636V-0.636364H30.9091V0.363636H31.9091ZM33.608 0.363636H34.608V-0.636364H33.608V0.363636ZM33.608 12V13H34.608V12H33.608ZM31.9489 12H30.9489V13H31.9489V12ZM31.9489 10.642H32.9489V9.64205H31.9489V10.642ZM31.8068 10.642V9.64205H31.2161L30.931 10.1594L31.8068 10.642ZM31.3636 11.2784L30.5864 10.6492L30.5803 10.6568L31.3636 11.2784ZM30.8977 10.3352L31.5048 11.1298L31.5062 11.1288L30.8977 10.3352ZM31.6705 9.25L30.7373 8.8905L30.7348 8.8972L31.6705 9.25ZM31.6761 6.04545L30.7424 6.40339V6.40339L31.6761 6.04545ZM30.9091 4.98295L30.3077 5.78188V5.78188L30.9091 4.98295ZM28.3807 5L28.9946 5.78935L28.3807 5ZM27.608 6.08523L26.6732 5.72987L26.6707 5.73665L27.608 6.08523ZM27.6136 9.21023L28.5503 8.85994L27.6136 9.21023ZM28.3864 10.3182L27.7616 11.0991L27.7712 11.1066L28.3864 10.3182ZM29.2841 11.1705C28.7594 11.1705 28.3227 11.0395 27.9431 10.7925L26.8523 12.4689C27.5788 12.9416 28.3997 13.1705 29.2841 13.1705V11.1705ZM27.9498 10.7969C27.5721 10.5468 27.254 10.1803 27.0077 9.65498L25.1969 10.5041C25.5793 11.3197 26.1249 11.9873 26.8457 12.4645L27.9498 10.7969ZM27.0105 9.66113C26.7744 9.14855 26.6364 8.4899 26.6364 7.65341H24.6364C24.6364 8.70328 24.8089 9.66206 25.194 10.498L27.0105 9.66113ZM26.6364 7.65341C26.6364 6.81814 26.7759 6.16394 27.0134 5.65752L25.2026 4.80839C24.8112 5.64288 24.6364 6.60231 24.6364 7.65341H26.6364ZM27.0114 5.6617C27.2602 5.13748 27.5793 4.77662 27.9561 4.53399L26.8734 2.85238C26.1442 3.32187 25.5921 3.98752 25.2045 4.80421L27.0114 5.6617ZM27.9561 4.53399C28.337 4.28875 28.7735 4.15909 29.2955 4.15909V2.15909C28.4159 2.15909 27.5986 2.38549 26.8734 2.85238L27.9561 4.53399ZM29.2955 4.15909C29.7377 4.15909 29.9884 4.23523 30.1192 4.3074L31.0854 2.55624C30.5571 2.26477 29.9366 2.15909 29.2955 2.15909V4.15909ZM30.1312 4.31389C30.3697 4.44129 30.5043 4.56407 30.5796 4.66286L32.1704 3.45078C31.8821 3.0723 31.5015 2.77841 31.0734 2.54974L30.1312 4.31389ZM30.5856 4.67076C30.7531 4.886 30.8654 5.05361 30.9352 5.17776L32.6784 4.19724C32.5437 3.95776 32.3682 3.70491 32.1644 3.44288L30.5856 4.67076ZM31.8068 5.6875H31.9091V3.6875H31.8068V5.6875ZM32.9091 4.6875V0.363636H30.9091V4.6875H32.9091ZM31.9091 1.36364H33.608V-0.636364H31.9091V1.36364ZM32.608 0.363636V12H34.608V0.363636H32.608ZM33.608 11H31.9489V13H33.608V11ZM32.9489 12V10.642H30.9489V12H32.9489ZM31.9489 9.64205H31.8068V11.642H31.9489V9.64205ZM30.931 10.1594C30.8667 10.2761 30.7574 10.438 30.5864 10.6492L32.1409 11.9076C32.3562 11.6416 32.5424 11.3792 32.6827 11.1246L30.931 10.1594ZM30.5803 10.6568C30.4939 10.7656 30.3492 10.8928 30.1084 11.0213L31.0507 12.7855C31.4766 12.558 31.8546 12.2684 32.1469 11.9001L30.5803 10.6568ZM30.1084 11.0213C29.9667 11.097 29.7126 11.1705 29.2841 11.1705V13.1705C29.9162 13.1705 30.5257 13.0658 31.0507 12.7855L30.1084 11.0213ZM29.6591 11.7216C30.3324 11.7216 30.9676 11.5403 31.5048 11.1298L30.2906 9.54062C30.1536 9.64531 29.9631 9.72159 29.6591 9.72159V11.7216ZM31.5062 11.1288C32.0163 10.7378 32.3761 10.2128 32.6062 9.6028L30.7348 8.8972C30.6163 9.21142 30.461 9.40997 30.2893 9.54162L31.5062 11.1288ZM32.6036 9.60949C32.835 9.00888 32.9375 8.34456 32.9375 7.63636H30.9375C30.9375 8.15544 30.862 8.56687 30.7373 8.89051L32.6036 9.60949ZM32.9375 7.63636C32.9375 6.93682 32.8372 6.28049 32.6099 5.68752L30.7424 6.40339C30.8636 6.71951 30.9375 7.12378 30.9375 7.63636H32.9375ZM32.6099 5.68752C32.379 5.08519 32.0195 4.5672 31.5105 4.18403L30.3077 5.78188C30.4729 5.90629 30.6248 6.09663 30.7424 6.40339L32.6099 5.68752ZM31.5105 4.18403C30.9709 3.77782 30.3328 3.60227 29.6591 3.60227V5.60227C29.9778 5.60227 30.173 5.68052 30.3077 5.78188L31.5105 4.18403ZM29.6591 3.60227C28.9678 3.60227 28.314 3.78501 27.7667 4.21065L28.9946 5.78935C29.1292 5.68468 29.3277 5.60227 29.6591 5.60227V3.60227ZM27.7667 4.21065C27.2624 4.60295 26.9036 5.12392 26.6732 5.72987L28.5427 6.44058C28.6608 6.12986 28.8172 5.92735 28.9946 5.78935L27.7667 4.21065ZM26.6707 5.73665C26.4521 6.32437 26.3523 6.96228 26.3523 7.63636H28.3523C28.3523 7.15894 28.4229 6.76275 28.5452 6.4338L26.6707 5.73665ZM26.3523 7.63636C26.3523 8.31906 26.4543 8.96505 26.677 9.56052L28.5503 8.85994C28.4245 8.52358 28.3523 8.12034 28.3523 7.63636H26.3523ZM26.677 9.56052C26.9055 10.1714 27.2611 10.6986 27.7617 11.0991L29.0111 9.53731C28.8299 9.39235 28.6703 9.18083 28.5503 8.85994L26.677 9.56052ZM27.7712 11.1066C28.3177 11.533 28.9679 11.7216 29.6591 11.7216V9.72159C29.3427 9.72159 29.1444 9.64123 29.0015 9.52976L27.7712 11.1066ZM37.0724 11.8864L36.65 12.7928L36.6563 12.7957L37.0724 11.8864ZM36.0099 10.983L35.173 11.5302L35.1767 11.5358L36.0099 10.983ZM35.9077 8.31818L36.767 8.82967L35.9077 8.31818ZM36.6747 7.5625L37.1741 8.42885L36.6747 7.5625ZM38.9702 6.92614L38.855 5.93279L38.8517 5.93317L38.9702 6.92614ZM40.2429 6.77841L40.3584 7.77178L40.3698 7.77033L40.2429 6.77841ZM40.9531 6.57955L41.4772 7.4312V7.4312L40.9531 6.57955ZM40.7543 4.94318L40.052 5.65516L40.0569 5.65991L40.7543 4.94318ZM38.1634 4.91477L38.7722 5.70808L38.7735 5.70706L38.1634 4.91477ZM37.4872 5.75L37.2651 6.72503L38.093 6.91358L38.4133 6.1273L37.4872 5.75ZM35.8906 5.38636L34.9489 5.05003L34.5699 6.11117L35.6686 6.36139L35.8906 5.38636ZM36.7202 4.10227L37.3874 4.84711L37.3879 4.84671L36.7202 4.10227ZM37.9872 3.38636L38.2829 4.34167L38.2898 4.33949L37.9872 3.38636ZM40.6009 3.28409L40.392 4.26209L40.4029 4.26431L40.6009 3.28409ZM41.7031 3.72727L41.1681 4.5721L41.1723 4.57475L41.7031 3.72727ZM42.5497 4.65341L41.6724 5.13342L41.6744 5.13693L42.5497 4.65341ZM42.8793 12V13H43.8793V12H42.8793ZM41.2202 12H40.2202V13H41.2202V12ZM41.2202 10.8068H42.2202V9.80682H41.2202V10.8068ZM41.152 10.8068V9.80682H40.534L40.2576 10.3596L41.152 10.8068ZM40.6577 11.4545L39.9631 10.7351L40.6577 11.4545ZM39.8111 11.983L39.4344 11.0566L39.8111 11.983ZM40.1463 10.5511L39.664 9.67512L39.6598 9.67745L40.1463 10.5511ZM40.9134 9.82386L40.0511 9.31731L40.0492 9.32067L40.9134 9.82386ZM41.1804 7.72727H42.1804V5.31306L40.4733 7.02017L41.1804 7.72727ZM40.8281 7.89773L41.1057 8.85844L41.1125 8.85647L41.1193 8.8544L40.8281 7.89773ZM40.2429 8.02841L40.3962 9.01658L40.4045 9.0153L40.4128 9.01387L40.2429 8.02841ZM39.6009 8.125L39.7271 9.117L39.736 9.11587L39.7448 9.11459L39.6009 8.125ZM39.0781 8.19318L39.2036 9.18532L39.212 9.18417L39.0781 8.19318ZM38.1747 8.40341L37.8351 7.46285L37.8308 7.46439L38.1747 8.40341ZM37.527 8.82955L36.7754 8.16995L36.7744 8.17104L37.527 8.82955ZM37.7543 10.5114L37.1835 11.3325L37.1903 11.3372L37.7543 10.5114ZM38.5724 11.1932C38.145 11.1932 37.7895 11.1148 37.4886 10.9771L36.6563 12.7957C37.2493 13.067 37.8938 13.1932 38.5724 13.1932V11.1932ZM37.4949 10.98C37.2073 10.8459 36.9983 10.6638 36.8432 10.4301L35.1767 11.5358C35.5443 12.0899 36.0437 12.5101 36.65 12.7927L37.4949 10.98ZM36.8469 10.4357C36.7167 10.2365 36.6236 9.95388 36.6236 9.53409H34.6236C34.6236 10.2582 34.7881 10.9415 35.173 11.5302L36.8469 10.4357ZM36.6236 9.53409C36.6236 9.16409 36.6952 8.95016 36.767 8.82967L35.0484 7.8067C34.7413 8.32257 34.6236 8.91924 34.6236 9.53409H36.6236ZM36.767 8.82967C36.8684 8.6592 37 8.52926 37.1741 8.42885L36.1753 6.69615C35.7055 6.96695 35.3257 7.3408 35.0484 7.8067L36.767 8.82967ZM37.1741 8.42885C37.4045 8.29604 37.6728 8.1894 37.9859 8.11485L37.5226 6.16924C37.0403 6.28409 36.5888 6.45775 36.1753 6.69615L37.1741 8.42885ZM37.9859 8.11485C38.3457 8.02919 38.7132 7.96388 39.0886 7.9191L38.8517 5.93317C38.4014 5.98688 37.9583 6.06551 37.5226 6.16924L37.9859 8.11485ZM39.0853 7.91948C39.6081 7.85887 40.0325 7.80961 40.3584 7.77172L40.1274 5.7851C39.8018 5.82296 39.3777 5.87219 38.855 5.93279L39.0853 7.91948ZM40.3698 7.77033C40.7327 7.7239 41.1433 7.63667 41.4772 7.4312L40.429 5.72789C40.4598 5.70898 40.458 5.71688 40.3951 5.73448C40.3361 5.751 40.2456 5.76992 40.116 5.78649L40.3698 7.77033ZM41.4772 7.4312C41.978 7.12306 42.1747 6.61517 42.1747 6.13636H40.1747C40.1747 6.11966 40.1778 6.04751 40.2249 5.95335C40.2756 5.85197 40.3525 5.77497 40.429 5.72789L41.4772 7.4312ZM42.1747 6.13636V6.09659H40.1747V6.13636H42.1747ZM42.1747 6.09659C42.1747 5.40701 41.9742 4.73489 41.4516 4.22646L40.0569 5.65991C40.095 5.69693 40.1747 5.79375 40.1747 6.09659H42.1747ZM41.4565 4.23122C40.927 3.70897 40.2179 3.53409 39.5156 3.53409V5.53409C39.9119 5.53409 40.0285 5.63193 40.052 5.65515L41.4565 4.23122ZM39.5156 3.53409C38.8045 3.53409 38.1128 3.69152 37.5532 4.12249L38.7735 5.70706C38.873 5.63045 39.0828 5.53409 39.5156 5.53409V3.53409ZM37.5545 4.12146C37.1214 4.45386 36.7674 4.86644 36.5611 5.3727L38.4133 6.1273C38.4571 6.01993 38.5538 5.87569 38.7722 5.70808L37.5545 4.12146ZM37.7093 4.77497L36.1127 4.41133L35.6686 6.36139L37.2651 6.72503L37.7093 4.77497ZM36.8324 5.7227C36.9744 5.32504 37.1658 5.04568 37.3874 4.84711L36.0529 3.35744C35.5473 3.81038 35.1856 4.38708 34.9489 5.05003L36.8324 5.7227ZM37.3879 4.84671C37.6466 4.61466 37.9416 4.44728 38.2829 4.34165L37.6915 2.43108C37.0783 2.6209 36.5286 2.93079 36.0525 3.35783L37.3879 4.84671ZM38.2898 4.33949C38.6643 4.2206 39.0637 4.15909 39.4929 4.15909V2.15909C38.869 2.15909 38.2647 2.24909 37.6846 2.43324L38.2898 4.33949ZM39.4929 4.15909C39.7619 4.15909 40.0608 4.1913 40.392 4.26203L40.8097 2.30615C40.3606 2.21022 39.9208 2.15909 39.4929 2.15909V4.15909ZM40.4029 4.26431C40.6767 4.31958 40.9299 4.42125 41.1681 4.57209L42.2382 2.88245C41.7945 2.60148 41.3129 2.40769 40.7988 2.30387L40.4029 4.26431ZM41.1723 4.57475C41.3545 4.6889 41.5244 4.86287 41.6725 5.13342L43.427 4.1734C43.1356 3.64092 42.7411 3.19746 42.234 2.8798L41.1723 4.57475ZM41.6744 5.13693C41.7861 5.33913 41.8793 5.67319 41.8793 6.20455H43.8793C43.8793 5.46318 43.7528 4.76314 43.425 4.16989L41.6744 5.13693ZM41.8793 6.20455V12H43.8793V6.20455H41.8793ZM42.8793 11H41.2202V13H42.8793V11ZM42.2202 12V10.8068H40.2202V12H42.2202ZM41.2202 9.80682H41.152V11.8068H41.2202V9.80682ZM40.2576 10.3596C40.209 10.4566 40.1203 10.5834 39.9631 10.7351L41.3523 12.1739C41.6345 11.9015 41.8752 11.5964 42.0464 11.254L40.2576 10.3596ZM39.9631 10.7351C39.8529 10.8416 39.686 10.9543 39.4344 11.0566L40.1877 12.9093C40.6255 12.7313 41.0231 12.4918 41.3523 12.1739L39.9631 10.7351ZM39.4344 11.0566C39.2388 11.1362 38.9605 11.1932 38.5724 11.1932V13.1932C39.1465 13.1932 39.694 13.1101 40.1877 12.9093L39.4344 11.0566ZM38.9418 11.8295C39.5428 11.8295 40.12 11.7104 40.6328 11.4248L39.6598 9.67745C39.5059 9.76313 39.2801 9.82955 38.9418 9.82955V11.8295ZM40.6286 11.4271C41.1063 11.1642 41.5022 10.7999 41.7775 10.3271L40.0492 9.32067C39.976 9.44634 39.8606 9.5669 39.664 9.67513L40.6286 11.4271ZM41.7756 10.3304C42.042 9.87698 42.1804 9.37871 42.1804 8.85227H40.1804C40.1804 9.01523 40.1408 9.16469 40.0511 9.31731L41.7756 10.3304ZM42.1804 8.85227V7.72727H40.1804V8.85227H42.1804ZM40.4733 7.02017C40.5158 6.97769 40.5526 6.95114 40.5737 6.93724C40.5954 6.92296 40.6093 6.91614 40.6113 6.91518C40.6137 6.91402 40.6092 6.91634 40.5957 6.92142C40.5825 6.9264 40.5632 6.93306 40.537 6.94105L41.1193 8.8544C41.3115 8.79589 41.6394 8.68251 41.8875 8.43438L40.4733 7.02017ZM40.5506 6.93701C40.4231 6.97383 40.2651 7.00982 40.073 7.04295L40.4128 9.01387C40.6601 8.97124 40.8922 8.92011 41.1057 8.85844L40.5506 6.93701ZM40.0896 7.04024C39.8728 7.07387 39.6619 7.10559 39.4569 7.13541L39.7448 9.11459C39.9564 9.0838 40.1736 9.05113 40.3962 9.01658L40.0896 7.04024ZM39.4746 7.133C39.2648 7.1597 39.0878 7.18278 38.9442 7.20219L39.212 9.18417C39.3487 9.1657 39.5202 9.14333 39.7271 9.117L39.4746 7.133ZM38.9527 7.20108C38.5604 7.25068 38.1862 7.33604 37.8351 7.46286L38.5144 9.34396C38.7086 9.27381 38.9368 9.21902 39.2036 9.18528L38.9527 7.20108ZM37.8308 7.46439C37.43 7.61117 37.0651 7.83976 36.7754 8.16996L38.2786 9.48914C38.3146 9.44812 38.3815 9.39262 38.5186 9.34243L37.8308 7.46439ZM36.7744 8.17104C36.4183 8.57798 36.2884 9.07528 36.2884 9.55682H38.2884C38.2884 9.4919 38.2969 9.46324 38.2982 9.4595C38.2987 9.45783 38.2978 9.4611 38.2942 9.46753C38.2905 9.47409 38.2855 9.48129 38.2796 9.48805L36.7744 8.17104ZM36.2884 9.55682C36.2884 10.2621 36.5708 10.9066 37.1835 11.3325L38.325 9.69025C38.3103 9.68 38.3048 9.67375 38.304 9.67289C38.3035 9.67229 38.3037 9.67267 38.3035 9.67216C38.3031 9.67135 38.2996 9.66422 38.2961 9.64723C38.2924 9.62972 38.2884 9.60052 38.2884 9.55682H36.2884ZM37.1903 11.3372C37.708 11.6907 38.3154 11.8295 38.9418 11.8295V9.82955C38.606 9.82955 38.4218 9.75628 38.3182 9.68556L37.1903 11.3372ZM51.6818 5.40341L51.8562 6.38808L52.9176 6.2001L52.6507 5.15581L51.6818 5.40341ZM50.142 5.67614L49.1916 5.98688L49.4614 6.81226L50.3165 6.66081L50.142 5.67614ZM49.8352 5.11364L49.0413 5.72177L49.0495 5.73219L49.8352 5.11364ZM49.2784 4.67614L49.714 3.77598V3.77598L49.2784 4.67614ZM47.1932 4.82955L47.7434 5.66463L47.7501 5.66009L47.1932 4.82955ZM48.0795 6.79545L47.8496 7.76869L47.8559 7.77011L48.0795 6.79545ZM49.4659 7.11364L49.6911 6.13932L49.6896 6.13898L49.4659 7.11364ZM51.2614 7.97159L50.5612 8.68553L50.5612 8.68553L51.2614 7.97159ZM51.3977 10.875L50.5942 10.2798L50.5932 10.281L51.3977 10.875ZM50.142 11.8295L49.7473 10.9107L49.745 10.9118L50.142 11.8295ZM45.892 11.5511L45.3292 12.3777L45.3327 12.38L45.892 11.5511ZM44.7557 9.76136L44.6052 8.77276L43.5881 8.9276L43.7717 9.93982L44.7557 9.76136ZM46.3977 9.51136L47.3703 9.27897L47.1566 8.38431L46.2472 8.52276L46.3977 9.51136ZM47.0284 10.483L46.4602 11.3059L46.4669 11.3104L47.0284 10.483ZM49.608 10.4602L50.1777 11.2821L50.1839 11.2777L49.608 10.4602ZM49.8011 8.91477L49.1223 9.64908L49.1291 9.65533L49.8011 8.91477ZM48.875 8.49432L49.0966 7.51916L49.0891 7.51752L48.875 8.49432ZM47.3977 8.17045L47.1755 9.14549L47.1836 9.14726L47.3977 8.17045ZM45.5909 7.28409L44.8671 7.97409L44.8705 7.9776L45.5909 7.28409ZM45.4432 4.39205L44.6413 3.79456L45.4432 4.39205ZM46.6364 3.48864L47.0278 4.40886L47.0336 4.40636L46.6364 3.48864ZM50.608 3.77273L50.0053 4.57072L50.0089 4.5734L50.608 3.77273ZM51.5074 4.41874L49.9676 4.69146L50.3165 6.66081L51.8562 6.38808L51.5074 4.41874ZM51.0925 5.3654C50.9884 5.047 50.8269 4.75666 50.621 4.49508L49.0495 5.73219C49.1239 5.82668 49.1669 5.91133 49.1916 5.98688L51.0925 5.3654ZM50.6291 4.50556C50.3834 4.18474 50.0665 3.94654 49.714 3.77598L48.8428 5.57629C48.9601 5.63301 49.0144 5.68647 49.0413 5.72171L50.6291 4.50556ZM49.714 3.77598C49.3044 3.57781 48.8507 3.50568 48.3977 3.50568V5.50568C48.6493 5.50568 48.7827 5.54719 48.8428 5.5763L49.714 3.77598ZM48.3977 3.50568C47.7663 3.50568 47.1587 3.64861 46.6362 3.999L47.7501 5.66009C47.8716 5.57866 48.067 5.50568 48.3977 5.50568V3.50568ZM46.643 3.99448C46.0874 4.36054 45.7102 4.92718 45.7102 5.65341H47.7102C47.7102 5.64939 47.7106 5.6549 47.7075 5.66678C47.7043 5.67899 47.6992 5.69089 47.6937 5.70032C47.6884 5.70935 47.6859 5.71055 47.6918 5.70469C47.698 5.69844 47.7134 5.68431 47.7433 5.66461L46.643 3.99448ZM45.7102 5.65341C45.7102 6.22915 45.9406 6.75245 46.3979 7.12949L47.6703 5.58642C47.6683 5.58475 47.6724 5.58784 47.6792 5.59659C47.6863 5.60557 47.6936 5.61723 47.6998 5.63063C47.7059 5.64394 47.7089 5.65469 47.7101 5.66065C47.7112 5.66627 47.7102 5.66454 47.7102 5.65341H45.7102ZM46.3979 7.12949C46.7906 7.45329 47.3171 7.64288 47.8497 7.76867L48.3094 5.82224C47.8798 5.72076 47.7094 5.61868 47.6703 5.58642L46.3979 7.12949ZM47.8559 7.77011L49.2422 8.0883L49.6896 6.13898L48.3032 5.8208L47.8559 7.77011ZM49.2407 8.08795C49.9469 8.25118 50.3481 8.47661 50.5612 8.68553L51.9616 7.25765C51.3867 6.69384 50.5909 6.3473 49.6911 6.13932L49.2407 8.08795ZM50.5612 8.68553C50.7397 8.86063 50.8523 9.09339 50.8523 9.47727H52.8523C52.8523 8.6263 52.5709 7.85527 51.9616 7.25765L50.5612 8.68553ZM50.8523 9.47727C50.8523 9.79183 50.766 10.0478 50.5942 10.2798L52.2013 11.4702C52.6355 10.884 52.8523 10.2082 52.8523 9.47727H50.8523ZM50.5932 10.281C50.4154 10.5219 50.149 10.7382 49.7473 10.9107L50.5367 12.7484C51.2109 12.4588 51.7816 12.0387 52.2022 11.469L50.5932 10.281ZM49.745 10.9118C49.3597 11.0784 48.8802 11.1761 48.2841 11.1761V13.1761C49.0971 13.1761 49.8562 13.0428 50.5391 12.7473L49.745 10.9118ZM48.2841 11.1761C47.4448 11.1761 46.8592 10.9974 46.4514 10.7222L45.3327 12.38C46.1598 12.9382 47.1689 13.1761 48.2841 13.1761V11.1761ZM46.4549 10.7246C46.0714 10.4634 45.8347 10.107 45.7396 9.5829L43.7717 9.93982C43.957 10.9612 44.4778 11.7979 45.3292 12.3777L46.4549 10.7246ZM44.9062 10.75L46.5482 10.5L46.2472 8.52276L44.6052 8.77276L44.9062 10.75ZM45.4251 9.74376C45.5762 10.3763 45.9108 10.9265 46.4602 11.3059L47.5966 9.66006C47.5096 9.59999 47.4238 9.5025 47.3703 9.27897L45.4251 9.74376ZM46.4669 11.3104C46.9974 11.6704 47.6261 11.8068 48.2727 11.8068V9.80682C47.8967 9.80682 47.6958 9.72733 47.5899 9.65548L46.4669 11.3104ZM48.2727 11.8068C48.9592 11.8068 49.6251 11.6651 50.1777 11.2821L49.0383 9.63837C48.9242 9.71745 48.6999 9.80682 48.2727 9.80682V11.8068ZM50.1839 11.2777C50.7199 10.9001 51.108 10.3349 51.108 9.60227H49.108C49.108 9.60327 49.108 9.59727 49.1107 9.58713C49.1134 9.57689 49.1171 9.56936 49.119 9.56609C49.1227 9.55963 49.1078 9.58935 49.032 9.64275L50.1839 11.2777ZM51.108 9.60227C51.108 9.0434 50.8835 8.54661 50.4731 8.17421L49.1291 9.65533C49.135 9.66066 49.1348 9.66141 49.1314 9.65685C49.1279 9.65208 49.1228 9.64408 49.1181 9.63339C49.1133 9.62267 49.1104 9.61287 49.1089 9.60557C49.1075 9.59849 49.108 9.59684 49.108 9.60227H51.108ZM50.48 8.1805C50.0977 7.82701 49.5966 7.63281 49.0966 7.51919L48.6534 9.46945C48.9867 9.54522 49.1031 9.63132 49.1223 9.64904L50.48 8.1805ZM49.0891 7.51752L47.6119 7.19365L47.1836 9.14726L48.6609 9.47112L49.0891 7.51752ZM47.6199 7.19546C46.9089 7.03341 46.5157 6.8029 46.3114 6.59058L44.8705 7.9776C45.4464 8.57589 46.2578 8.93629 47.1755 9.14545L47.6199 7.19546ZM46.3147 6.5941C46.1257 6.39579 46.0114 6.13917 46.0114 5.74432H44.0114C44.0114 6.59189 44.2834 7.36179 44.8671 7.97408L46.3147 6.5941ZM46.0114 5.74432C46.0114 5.42863 46.095 5.19097 46.2451 4.98953L44.6413 3.79456C44.2156 4.36585 44.0114 5.0297 44.0114 5.74432H46.0114ZM46.2451 4.98953C46.4126 4.76473 46.6592 4.56563 47.0278 4.40884L46.2449 2.56843C45.5984 2.84346 45.0496 3.24664 44.6413 3.79456L46.2451 4.98953ZM47.0336 4.40636C47.3948 4.25001 47.8372 4.15909 48.3807 4.15909V2.15909C47.6136 2.15909 46.8931 2.28787 46.2391 2.57091L47.0336 4.40636ZM48.3807 4.15909C49.1893 4.15909 49.6934 4.33519 50.0053 4.57071L51.2106 2.97474C50.4392 2.39209 49.4584 2.15909 48.3807 2.15909V4.15909ZM50.0089 4.5734C50.36 4.83611 50.5928 5.18072 50.713 5.65101L52.6507 5.15581C52.4224 4.26246 51.9393 3.51995 51.2071 2.97206L50.0089 4.5734ZM57.794 3.27273H58.794V2.27273H57.794V3.27273ZM57.794 4.63636V5.63636H58.794V4.63636H57.794ZM53.027 4.63636H52.027V5.63636H53.027V4.63636ZM53.027 3.27273V2.27273H52.027V3.27273H53.027ZM54.3054 1.18182V0.181818H53.3054V1.18182H54.3054ZM56.0043 1.18182H57.0043V0.181818H56.0043V1.18182ZM56.152 10.1818L55.291 10.6906L55.2963 10.6992L56.152 10.1818ZM56.5327 10.517L56.1691 11.4486L56.1827 11.4539L56.1963 11.4588L56.5327 10.517ZM57.4077 10.5739L57.5898 11.5571L57.4077 10.5739ZM57.6463 10.5284L58.6232 10.3148L58.4134 9.35518L57.4502 9.54783L57.6463 10.5284ZM57.9531 11.9318L58.3121 12.8652L59.1134 12.557L58.93 11.7182L57.9531 11.9318ZM57.5327 12.0455L57.3287 11.0665L57.319 11.0685L57.3093 11.0707L57.5327 12.0455ZM56.8509 12.1136L56.837 11.1137L56.8339 11.1138L56.8509 12.1136ZM55.6009 11.875L55.2048 12.7932L55.6009 11.875ZM54.6634 11.1023L53.8383 11.6673L54.6634 11.1023ZM56.794 3.27273V4.63636H58.794V3.27273H56.794ZM57.794 3.63636H53.027V5.63636H57.794V3.63636ZM54.027 4.63636V3.27273H52.027V4.63636H54.027ZM53.027 4.27273H57.794V2.27273H53.027V4.27273ZM54.3054 2.18182H56.0043V0.181818H54.3054V2.18182ZM55.0043 1.18182V9.4375H57.0043V1.18182H55.0043ZM55.0043 9.4375C55.0043 9.83534 55.0582 10.2964 55.2911 10.6905L57.0129 9.67309C57.0356 9.71155 57.0311 9.72147 57.0221 9.67606C57.0133 9.63199 57.0043 9.55536 57.0043 9.4375H55.0043ZM55.2963 10.6992C55.4918 11.0226 55.7801 11.2968 56.1691 11.4486L56.8962 9.58547C56.9291 9.59829 56.9589 9.617 56.9819 9.63729C57.0038 9.6566 57.0108 9.66948 57.0077 9.6644L55.2963 10.6992ZM56.1963 11.4588C56.4735 11.5578 56.7608 11.6023 57.0497 11.6023V9.60227C56.9674 9.60227 56.91 9.58995 56.869 9.5753L56.1963 11.4588ZM57.0497 11.6023C57.2295 11.6023 57.4123 11.59 57.5898 11.5571L57.2256 9.59058C57.1985 9.59559 57.1427 9.60227 57.0497 9.60227V11.6023ZM57.5898 11.5571C57.6937 11.5379 57.7787 11.5217 57.8424 11.509L57.4502 9.54783C57.4003 9.5578 57.3262 9.57195 57.2256 9.59058L57.5898 11.5571ZM56.6694 10.742L56.9762 12.1454L58.93 11.7182L58.6232 10.3148L56.6694 10.742ZM57.5941 10.9985C57.57 11.0077 57.491 11.0327 57.3287 11.0665L57.7366 13.0244C57.938 12.9825 58.1392 12.9317 58.3121 12.8652L57.5941 10.9985ZM57.3093 11.0707C57.2198 11.0912 57.0684 11.1105 56.837 11.1137L56.8647 13.1135C57.1788 13.1092 57.4819 13.083 57.756 13.0202L57.3093 11.0707ZM56.8339 11.1138C56.5198 11.1191 56.2449 11.0638 55.9969 10.9568L55.2048 12.7932C55.7295 13.0196 56.2879 13.1233 56.8678 13.1135L56.8339 11.1138ZM55.9969 10.9568C55.7848 10.8653 55.6207 10.7305 55.4884 10.5373L53.8383 11.6673C54.1832 12.171 54.6442 12.5514 55.2048 12.7932L55.9969 10.9568ZM55.4884 10.5373C55.3891 10.3921 55.3054 10.1646 55.3054 9.78977H53.3054C53.3054 10.4679 53.4604 11.1154 53.8383 11.6673L55.4884 10.5373ZM55.3054 9.78977V1.18182H53.3054V9.78977H55.3054ZM59.6733 12H58.6733V13H59.6733V12ZM59.6733 3.27273V2.27273H58.6733V3.27273H59.6733ZM61.3153 3.27273H62.3153V2.27273H61.3153V3.27273ZM61.3153 4.65909H60.3153V5.65909H61.3153V4.65909ZM61.4062 4.65909V5.65909H62.1233L62.3534 4.9799L61.4062 4.65909ZM62.2472 3.55114L62.8037 4.38198L62.8054 4.38079L62.2472 3.55114ZM63.9972 3.15341L63.9446 4.15203L63.9459 4.1521L63.9972 3.15341ZM64.3438 3.18182H65.3438V2.30893L64.4789 2.19099L64.3438 3.18182ZM64.3438 4.80682L64.0761 5.77034L65.3438 6.12246V4.80682H64.3438ZM63.9801 4.74432L63.8297 5.73294L63.8402 5.73454L63.8508 5.73592L63.9801 4.74432ZM62.3835 4.96023L62.8563 5.8414L62.8601 5.83933L62.3835 4.96023ZM61.6449 5.65909L62.4966 6.1832L62.4995 6.17835L61.6449 5.65909ZM61.3722 12V13H62.3722V12H61.3722ZM60.6733 12V3.27273H58.6733V12H60.6733ZM59.6733 4.27273H61.3153V2.27273H59.6733V4.27273ZM60.3153 3.27273V4.65909H62.3153V3.27273H60.3153ZM61.3153 5.65909H61.4062V3.65909H61.3153V5.65909ZM62.3534 4.9799C62.4439 4.71267 62.59 4.52509 62.8037 4.38198L61.6907 2.72029C61.1013 3.11506 60.6868 3.66612 60.4591 4.33828L62.3534 4.9799ZM62.8054 4.38079C63.0378 4.22446 63.2999 4.14205 63.6222 4.14205V2.14205C62.9217 2.14205 62.2672 2.33235 61.6889 2.72148L62.8054 4.38079ZM63.6222 4.14205C63.7058 4.14205 63.8124 4.14507 63.9446 4.15203L64.0497 2.15479C63.894 2.1466 63.7507 2.14205 63.6222 2.14205V4.14205ZM63.9459 4.1521C64.0832 4.15913 64.1664 4.16688 64.2086 4.17265L64.4789 2.19099C64.3545 2.17402 64.2066 2.16283 64.0484 2.15472L63.9459 4.1521ZM63.3438 3.18182V4.80682H65.3438V3.18182H63.3438ZM64.6114 3.8433C64.4673 3.80328 64.282 3.77522 64.1095 3.75272L63.8508 5.73592C63.9297 5.74621 63.9893 5.75514 64.0323 5.76254C64.0801 5.77075 64.0895 5.77406 64.0761 5.77034L64.6114 3.8433ZM64.1306 3.7557C63.9071 3.72169 63.6826 3.70455 63.4574 3.70455V5.70455C63.5807 5.70455 63.7046 5.71391 63.8297 5.73294L64.1306 3.7557ZM63.4574 3.70455C62.9102 3.70455 62.3848 3.82199 61.9069 4.08112L62.8601 5.83933C63.011 5.75755 63.2016 5.70455 63.4574 5.70455V3.70455ZM61.9107 4.07907C61.4439 4.32953 61.0654 4.68697 60.7903 5.13983L62.4995 6.17835C62.588 6.03273 62.7019 5.92425 62.8563 5.84139L61.9107 4.07907ZM60.7932 5.13499C60.5056 5.6024 60.3722 6.12421 60.3722 6.67045H62.3722C62.3722 6.45912 62.4205 6.30669 62.4965 6.18319L60.7932 5.13499ZM60.3722 6.67045V12H62.3722V6.67045H60.3722ZM61.3722 11H59.6733V13H61.3722V11ZM66.7756 11.8864L66.3531 12.7928L66.3594 12.7957L66.7756 11.8864ZM65.7131 10.983L64.8761 11.5302L64.8798 11.5358L65.7131 10.983ZM65.6108 8.31818L66.4701 8.82967L65.6108 8.31818ZM66.3778 7.5625L66.8773 8.42885L66.3778 7.5625ZM68.6733 6.92614L68.5581 5.93279L68.5549 5.93317L68.6733 6.92614ZM69.946 6.77841L70.0615 7.77178L70.0729 7.77033L69.946 6.77841ZM70.6562 6.57955L71.1804 7.4312V7.4312L70.6562 6.57955ZM70.4574 4.94318L69.7552 5.65516L69.76 5.65991L70.4574 4.94318ZM67.8665 4.91477L68.4753 5.70808L68.4766 5.70706L67.8665 4.91477ZM67.1903 5.75L66.9683 6.72503L67.7961 6.91358L68.1164 6.1273L67.1903 5.75ZM65.5938 5.38636L64.652 5.05003L64.273 6.11117L65.3717 6.36139L65.5938 5.38636ZM66.4233 4.10227L67.0905 4.84711L67.091 4.84671L66.4233 4.10227ZM67.6903 3.38636L67.986 4.34167L67.9929 4.33949L67.6903 3.38636ZM70.304 3.28409L70.0951 4.26209L70.106 4.26431L70.304 3.28409ZM71.4062 3.72727L70.8712 4.5721L70.8754 4.57475L71.4062 3.72727ZM72.2528 4.65341L71.3756 5.13342L71.3775 5.13693L72.2528 4.65341ZM72.5824 12V13H73.5824V12H72.5824ZM70.9233 12H69.9233V13H70.9233V12ZM70.9233 10.8068H71.9233V9.80682H70.9233V10.8068ZM70.8551 10.8068V9.80682H70.2371L69.9607 10.3596L70.8551 10.8068ZM70.3608 11.4545L69.6662 10.7351L70.3608 11.4545ZM69.5142 11.983L69.1376 11.0566L69.5142 11.983ZM69.8494 10.5511L69.3671 9.67512L69.3629 9.67745L69.8494 10.5511ZM70.6165 9.82386L69.7543 9.31731L69.7523 9.32067L70.6165 9.82386ZM70.8835 7.72727H71.8835V5.31306L70.1764 7.02017L70.8835 7.72727ZM70.5312 7.89773L70.8088 8.85844L70.8156 8.85647L70.8224 8.8544L70.5312 7.89773ZM69.946 8.02841L70.0994 9.01658L70.1077 9.0153L70.1159 9.01387L69.946 8.02841ZM69.304 8.125L69.4302 9.117L69.4391 9.11587L69.4479 9.11459L69.304 8.125ZM68.7812 8.19318L68.9067 9.18532L68.9152 9.18417L68.7812 8.19318ZM67.8778 8.40341L67.5382 7.46285L67.534 7.46439L67.8778 8.40341ZM67.2301 8.82955L66.4785 8.16995L66.4775 8.17104L67.2301 8.82955ZM67.4574 10.5114L66.8866 11.3325L66.8934 11.3372L67.4574 10.5114ZM68.2756 11.1932C67.8481 11.1932 67.4926 11.1148 67.1917 10.9771L66.3594 12.7957C66.9524 13.067 67.5969 13.1932 68.2756 13.1932V11.1932ZM67.198 10.98C66.9104 10.8459 66.7014 10.6638 66.5463 10.4301L64.8798 11.5358C65.2474 12.0899 65.7468 12.5101 66.3531 12.7927L67.198 10.98ZM66.55 10.4357C66.4198 10.2365 66.3267 9.95388 66.3267 9.53409H64.3267C64.3267 10.2582 64.4912 10.9415 64.8761 11.5302L66.55 10.4357ZM66.3267 9.53409C66.3267 9.16409 66.3984 8.95016 66.4701 8.82967L64.7515 7.8067C64.4444 8.32257 64.3267 8.91924 64.3267 9.53409H66.3267ZM66.4701 8.82967C66.5716 8.6592 66.7031 8.52926 66.8773 8.42885L65.8784 6.69615C65.4086 6.96695 65.0288 7.3408 64.7515 7.8067L66.4701 8.82967ZM66.8773 8.42885C67.1077 8.29604 67.3759 8.1894 67.689 8.11485L67.2258 6.16924C66.7434 6.28409 66.292 6.45775 65.8784 6.69615L66.8773 8.42885ZM67.689 8.11485C68.0488 8.02919 68.4163 7.96388 68.7917 7.9191L68.5549 5.93317C68.1046 5.98688 67.6614 6.06551 67.2258 6.16924L67.689 8.11485ZM68.7885 7.91948C69.3112 7.85887 69.7356 7.80961 70.0615 7.77172L69.8305 5.7851C69.5049 5.82296 69.0808 5.87219 68.5581 5.93279L68.7885 7.91948ZM70.0729 7.77033C70.4359 7.7239 70.8465 7.63667 71.1804 7.4312L70.1321 5.72789C70.1629 5.70898 70.1611 5.71688 70.0983 5.73448C70.0393 5.751 69.9487 5.76992 69.8192 5.78649L70.0729 7.77033ZM71.1804 7.4312C71.6811 7.12306 71.8778 6.61517 71.8778 6.13636H69.8778C69.8778 6.11966 69.8809 6.04751 69.928 5.95335C69.9787 5.85197 70.0556 5.77497 70.1321 5.72789L71.1804 7.4312ZM71.8778 6.13636V6.09659H69.8778V6.13636H71.8778ZM71.8778 6.09659C71.8778 5.40701 71.6773 4.73489 71.1547 4.22646L69.76 5.65991C69.7981 5.69693 69.8778 5.79375 69.8778 6.09659H71.8778ZM71.1596 4.23122C70.6301 3.70897 69.921 3.53409 69.2188 3.53409V5.53409C69.615 5.53409 69.7316 5.63193 69.7552 5.65515L71.1596 4.23122ZM69.2188 3.53409C68.5076 3.53409 67.8159 3.69152 67.2563 4.12249L68.4766 5.70706C68.5761 5.63045 68.7859 5.53409 69.2188 5.53409V3.53409ZM67.2577 4.12146C66.8245 4.45386 66.4705 4.86644 66.2642 5.3727L68.1164 6.1273C68.1602 6.01993 68.2569 5.87569 68.4753 5.70808L67.2577 4.12146ZM67.4124 4.77497L65.8158 4.41133L65.3717 6.36139L66.9683 6.72503L67.4124 4.77497ZM66.5355 5.7227C66.6775 5.32504 66.8689 5.04568 67.0905 4.84711L65.756 3.35744C65.2504 3.81038 64.8888 4.38708 64.652 5.05003L66.5355 5.7227ZM67.091 4.84671C67.3497 4.61466 67.6448 4.44728 67.986 4.34165L67.3947 2.43108C66.7814 2.6209 66.2317 2.93079 65.7556 3.35783L67.091 4.84671ZM67.9929 4.33949C68.3674 4.2206 68.7669 4.15909 69.196 4.15909V2.15909C68.5722 2.15909 67.9678 2.24909 67.3878 2.43324L67.9929 4.33949ZM69.196 4.15909C69.4651 4.15909 69.7639 4.1913 70.0951 4.26203L70.5129 2.30615C70.0637 2.21022 69.624 2.15909 69.196 2.15909V4.15909ZM70.106 4.26431C70.3798 4.31958 70.633 4.42125 70.8712 4.57209L71.9413 2.88245C71.4977 2.60148 71.016 2.40769 70.5019 2.30387L70.106 4.26431ZM70.8754 4.57475C71.0577 4.6889 71.2275 4.86287 71.3756 5.13342L73.1301 4.1734C72.8387 3.64092 72.4442 3.19746 71.9371 2.8798L70.8754 4.57475ZM71.3775 5.13693C71.4892 5.33913 71.5824 5.67319 71.5824 6.20455H73.5824C73.5824 5.46318 73.4559 4.76314 73.1282 4.16989L71.3775 5.13693ZM71.5824 6.20455V12H73.5824V6.20455H71.5824ZM72.5824 11H70.9233V13H72.5824V11ZM71.9233 12V10.8068H69.9233V12H71.9233ZM70.9233 9.80682H70.8551V11.8068H70.9233V9.80682ZM69.9607 10.3596C69.9122 10.4566 69.8234 10.5834 69.6662 10.7351L71.0554 12.1739C71.3376 11.9015 71.5784 11.5964 71.7495 11.254L69.9607 10.3596ZM69.6662 10.7351C69.556 10.8416 69.3891 10.9543 69.1376 11.0566L69.8909 12.9093C70.3287 12.7313 70.7262 12.4918 71.0554 12.1739L69.6662 10.7351ZM69.1376 11.0566C68.9419 11.1362 68.6636 11.1932 68.2756 11.1932V13.1932C68.8497 13.1932 69.3971 13.1101 69.8909 12.9093L69.1376 11.0566ZM68.6449 11.8295C69.2459 11.8295 69.8231 11.7104 70.3359 11.4248L69.3629 9.67745C69.2091 9.76313 68.9833 9.82955 68.6449 9.82955V11.8295ZM70.3317 11.4271C70.8094 11.1642 71.2053 10.7999 71.4807 10.3271L69.7523 9.32067C69.6791 9.44634 69.5637 9.5669 69.3671 9.67513L70.3317 11.4271ZM71.4787 10.3304C71.7451 9.87698 71.8835 9.37871 71.8835 8.85227H69.8835C69.8835 9.01523 69.8439 9.16469 69.7543 9.31731L71.4787 10.3304ZM71.8835 8.85227V7.72727H69.8835V8.85227H71.8835ZM70.1764 7.02017C70.2189 6.97769 70.2558 6.95114 70.2768 6.93724C70.2985 6.92296 70.3125 6.91614 70.3144 6.91518C70.3168 6.91402 70.3123 6.91634 70.2988 6.92142C70.2856 6.9264 70.2663 6.93306 70.2401 6.94105L70.8224 8.8544C71.0147 8.79589 71.3425 8.68251 71.5906 8.43438L70.1764 7.02017ZM70.2537 6.93701C70.1263 6.97383 69.9683 7.00982 69.7761 7.04295L70.1159 9.01387C70.3632 8.97124 70.5953 8.92011 70.8088 8.85844L70.2537 6.93701ZM69.7927 7.04024C69.5759 7.07387 69.3651 7.10559 69.16 7.13541L69.4479 9.11459C69.6596 9.0838 69.8767 9.05113 70.0994 9.01658L69.7927 7.04024ZM69.1777 7.133C68.9679 7.1597 68.7909 7.18278 68.6473 7.20219L68.9152 9.18417C69.0519 9.1657 69.2234 9.14333 69.4302 9.117L69.1777 7.133ZM68.6558 7.20108C68.2635 7.25068 67.8894 7.33604 67.5382 7.46286L68.2175 9.34396C68.4118 9.27381 68.6399 9.21902 68.9067 9.18528L68.6558 7.20108ZM67.534 7.46439C67.1332 7.61117 66.7683 7.83976 66.4785 8.16996L67.9817 9.48914C68.0177 9.44812 68.0846 9.39262 68.2217 9.34243L67.534 7.46439ZM66.4775 8.17104C66.1215 8.57798 65.9915 9.07528 65.9915 9.55682H67.9915C67.9915 9.4919 68.0001 9.46324 68.0013 9.4595C68.0018 9.45783 68.0009 9.4611 67.9973 9.46753C67.9936 9.47409 67.9886 9.48129 67.9827 9.48805L66.4775 8.17104ZM65.9915 9.55682C65.9915 10.2621 66.2739 10.9066 66.8866 11.3325L68.0282 9.69025C68.0134 9.68 68.0079 9.67375 68.0071 9.67289C68.0066 9.67229 68.0069 9.67267 68.0066 9.67216C68.0062 9.67135 68.0028 9.66422 67.9992 9.64723C67.9955 9.62972 67.9915 9.60052 67.9915 9.55682H65.9915ZM66.8934 11.3372C67.4111 11.6907 68.0185 11.8295 68.6449 11.8295V9.82955C68.3091 9.82955 68.1249 9.75628 68.0213 9.68556L66.8934 11.3372ZM74.8452 12H73.8452V13H74.8452V12ZM74.8452 3.27273V2.27273H73.8452V3.27273H74.8452ZM76.4872 3.27273H77.4872V2.27273H76.4872V3.27273ZM76.4872 4.65909H75.4872V5.65909H76.4872V4.65909ZM76.5781 4.65909V5.65909H77.2952L77.5253 4.9799L76.5781 4.65909ZM77.419 3.55114L77.9755 4.38198L77.9773 4.38079L77.419 3.55114ZM79.169 3.15341L79.1165 4.15203L79.1178 4.1521L79.169 3.15341ZM79.5156 3.18182H80.5156V2.30893L79.6507 2.19099L79.5156 3.18182ZM79.5156 4.80682L79.248 5.77034L80.5156 6.12246V4.80682H79.5156ZM79.152 4.74432L79.0015 5.73294L79.0121 5.73454L79.0227 5.73592L79.152 4.74432ZM77.5554 4.96023L78.0282 5.8414L78.032 5.83933L77.5554 4.96023ZM76.8168 5.65909L77.6684 6.1832L77.6714 6.17835L76.8168 5.65909ZM76.544 12V13H77.544V12H76.544ZM75.8452 12V3.27273H73.8452V12H75.8452ZM74.8452 4.27273H76.4872V2.27273H74.8452V4.27273ZM75.4872 3.27273V4.65909H77.4872V3.27273H75.4872ZM76.4872 5.65909H76.5781V3.65909H76.4872V5.65909ZM77.5253 4.9799C77.6158 4.71267 77.7619 4.52509 77.9755 4.38198L76.8625 2.72029C76.2732 3.11506 75.8587 3.66612 75.631 4.33828L77.5253 4.9799ZM77.9773 4.38079C78.2096 4.22446 78.4717 4.14205 78.794 4.14205V2.14205C78.0936 2.14205 77.439 2.33235 76.8608 2.72148L77.9773 4.38079ZM78.794 4.14205C78.8776 4.14205 78.9843 4.14507 79.1165 4.15203L79.2216 2.15479C79.0659 2.1466 78.9226 2.14205 78.794 2.14205V4.14205ZM79.1178 4.1521C79.2551 4.15913 79.3382 4.16688 79.3805 4.17265L79.6507 2.19099C79.5263 2.17402 79.3785 2.16283 79.2202 2.15472L79.1178 4.1521ZM78.5156 3.18182V4.80682H80.5156V3.18182H78.5156ZM79.7833 3.8433C79.6392 3.80328 79.4539 3.77522 79.2813 3.75272L79.0227 5.73592C79.1015 5.74621 79.1612 5.75514 79.2042 5.76254C79.252 5.77075 79.2614 5.77406 79.248 5.77034L79.7833 3.8433ZM79.3024 3.7557C79.079 3.72169 78.8544 3.70455 78.6293 3.70455V5.70455C78.7526 5.70455 78.8765 5.71391 79.0015 5.73294L79.3024 3.7557ZM78.6293 3.70455C78.082 3.70455 77.5567 3.82199 77.0788 4.08112L78.032 5.83933C78.1829 5.75755 78.3735 5.70455 78.6293 5.70455V3.70455ZM77.0826 4.07907C76.6158 4.32953 76.2373 4.68697 75.9621 5.13983L77.6714 6.17835C77.7599 6.03273 77.8738 5.92425 78.0282 5.84139L77.0826 4.07907ZM75.9651 5.13499C75.6775 5.6024 75.544 6.12421 75.544 6.67045H77.544C77.544 6.45912 77.5924 6.30669 77.6684 6.18319L75.9651 5.13499ZM75.544 6.67045V12H77.544V6.67045H75.544ZM76.544 11H74.8452V13H76.544V11Z" fill="black"/>
</g>
<defs>
<filter id="filter0_d_1_15116" x="0.903381" y="0.20459" width="82.6122" height="19.9886" filterUnits="userSpaceOnUse" color-interpolation-filters="sRGB">
<feFlood flood-opacity="0" result="BackgroundImageFix"/>
<feColorMatrix in="SourceAlpha" type="matrix" values="0 0 0 0 0 0 0 0 0 0 0 0 0 0 0 0 0 0 127 0" result="hardAlpha"/>
<feOffset dy="4"/>
<feGaussianBlur stdDeviation="2"/>
<feComposite in2="hardAlpha" operator="out"/>
<feColorMatrix type="matrix" values="0 0 0 0 0 0 0 0 0 0 0 0 0 0 0 0 0 0 0.25 0"/>
<feBlend mode="normal" in2="BackgroundImageFix" result="effect1_dropShadow_1_15116"/>
<feBlend mode="normal" in="SourceGraphic" in2="effect1_dropShadow_1_15116" result="shape"/>
</filter>
</defs>
</svg>
